<mxfile host="app.diagrams.net" modified="2023-11-26T23:06:45.284Z" agent="Mozilla/5.0 (Windows NT 10.0; Win64; x64) AppleWebKit/537.36 (KHTML, like Gecko) Chrome/118.0.0.0 Safari/537.36 OPR/104.0.0.0" etag="2jjoMU31Wd2jKqqI2U4t" version="22.1.4" type="device">
  <diagram name="Página-1" id="dA3Yhbs87mwC3YAnPnTo">
    <mxGraphModel dx="1639" dy="901" grid="1" gridSize="10" guides="1" tooltips="1" connect="1" arrows="1" fold="1" page="1" pageScale="1" pageWidth="827" pageHeight="1169" math="0" shadow="0">
      <root>
        <mxCell id="0" />
        <mxCell id="1" parent="0" />
        <mxCell id="uEPk8Gao7o4AeKvKnNN_-4" value="" style="edgeStyle=orthogonalEdgeStyle;rounded=0;orthogonalLoop=1;jettySize=auto;html=1;endArrow=none;endFill=0;" edge="1" parent="1" source="uEPk8Gao7o4AeKvKnNN_-2" target="uEPk8Gao7o4AeKvKnNN_-3">
          <mxGeometry relative="1" as="geometry" />
        </mxCell>
        <mxCell id="uEPk8Gao7o4AeKvKnNN_-6" value="" style="edgeStyle=orthogonalEdgeStyle;rounded=0;orthogonalLoop=1;jettySize=auto;html=1;endArrow=none;endFill=0;" edge="1" parent="1" source="uEPk8Gao7o4AeKvKnNN_-2" target="uEPk8Gao7o4AeKvKnNN_-5">
          <mxGeometry relative="1" as="geometry" />
        </mxCell>
        <mxCell id="uEPk8Gao7o4AeKvKnNN_-8" value="" style="edgeStyle=orthogonalEdgeStyle;rounded=0;orthogonalLoop=1;jettySize=auto;html=1;endArrow=none;endFill=0;" edge="1" parent="1" source="uEPk8Gao7o4AeKvKnNN_-2" target="uEPk8Gao7o4AeKvKnNN_-7">
          <mxGeometry relative="1" as="geometry" />
        </mxCell>
        <mxCell id="uEPk8Gao7o4AeKvKnNN_-10" value="" style="edgeStyle=orthogonalEdgeStyle;rounded=0;orthogonalLoop=1;jettySize=auto;html=1;endArrow=none;endFill=0;" edge="1" parent="1" source="uEPk8Gao7o4AeKvKnNN_-2" target="uEPk8Gao7o4AeKvKnNN_-9">
          <mxGeometry relative="1" as="geometry" />
        </mxCell>
        <mxCell id="uEPk8Gao7o4AeKvKnNN_-12" value="&amp;nbsp; N&amp;nbsp;&amp;nbsp;" style="edgeStyle=orthogonalEdgeStyle;rounded=0;orthogonalLoop=1;jettySize=auto;html=1;endArrow=none;endFill=0;" edge="1" parent="1" source="uEPk8Gao7o4AeKvKnNN_-2" target="uEPk8Gao7o4AeKvKnNN_-11">
          <mxGeometry relative="1" as="geometry" />
        </mxCell>
        <mxCell id="uEPk8Gao7o4AeKvKnNN_-2" value="Produto" style="rounded=0;whiteSpace=wrap;html=1;" vertex="1" parent="1">
          <mxGeometry x="110" y="220" width="120" height="60" as="geometry" />
        </mxCell>
        <mxCell id="uEPk8Gao7o4AeKvKnNN_-3" value="Nome" style="ellipse;whiteSpace=wrap;html=1;rounded=0;fontStyle=4" vertex="1" parent="1">
          <mxGeometry x="130" y="70" width="80" height="80" as="geometry" />
        </mxCell>
        <mxCell id="uEPk8Gao7o4AeKvKnNN_-5" value="Marca" style="ellipse;whiteSpace=wrap;html=1;rounded=0;" vertex="1" parent="1">
          <mxGeometry x="230" y="350" width="80" height="80" as="geometry" />
        </mxCell>
        <mxCell id="uEPk8Gao7o4AeKvKnNN_-7" value="Quantidade" style="ellipse;whiteSpace=wrap;html=1;rounded=0;" vertex="1" parent="1">
          <mxGeometry x="30" y="350" width="80" height="80" as="geometry" />
        </mxCell>
        <mxCell id="uEPk8Gao7o4AeKvKnNN_-9" value="Preço" style="ellipse;whiteSpace=wrap;html=1;rounded=0;" vertex="1" parent="1">
          <mxGeometry x="130" y="350" width="80" height="80" as="geometry" />
        </mxCell>
        <mxCell id="uEPk8Gao7o4AeKvKnNN_-14" value="&amp;nbsp; 1&amp;nbsp;&amp;nbsp;" style="edgeStyle=orthogonalEdgeStyle;rounded=0;orthogonalLoop=1;jettySize=auto;html=1;endArrow=none;endFill=0;" edge="1" parent="1" source="uEPk8Gao7o4AeKvKnNN_-11" target="uEPk8Gao7o4AeKvKnNN_-13">
          <mxGeometry relative="1" as="geometry" />
        </mxCell>
        <mxCell id="uEPk8Gao7o4AeKvKnNN_-11" value="Pertence" style="rhombus;whiteSpace=wrap;html=1;rounded=0;" vertex="1" parent="1">
          <mxGeometry x="330" y="210" width="80" height="80" as="geometry" />
        </mxCell>
        <mxCell id="uEPk8Gao7o4AeKvKnNN_-16" value="" style="edgeStyle=orthogonalEdgeStyle;rounded=0;orthogonalLoop=1;jettySize=auto;html=1;endArrow=none;endFill=0;" edge="1" parent="1" source="uEPk8Gao7o4AeKvKnNN_-13" target="uEPk8Gao7o4AeKvKnNN_-15">
          <mxGeometry relative="1" as="geometry" />
        </mxCell>
        <mxCell id="uEPk8Gao7o4AeKvKnNN_-13" value="Loja" style="whiteSpace=wrap;html=1;rounded=0;" vertex="1" parent="1">
          <mxGeometry x="470" y="220" width="120" height="60" as="geometry" />
        </mxCell>
        <mxCell id="uEPk8Gao7o4AeKvKnNN_-15" value="dinheiroCaixa" style="ellipse;whiteSpace=wrap;html=1;rounded=0;" vertex="1" parent="1">
          <mxGeometry x="660" y="210" width="80" height="80" as="geometry" />
        </mxCell>
        <mxCell id="uEPk8Gao7o4AeKvKnNN_-17" value="Produto" style="swimlane;fontStyle=0;childLayout=stackLayout;horizontal=1;startSize=30;horizontalStack=0;resizeParent=1;resizeParentMax=0;resizeLast=0;collapsible=1;marginBottom=0;whiteSpace=wrap;html=1;" vertex="1" parent="1">
          <mxGeometry x="130" y="570" width="140" height="150" as="geometry">
            <mxRectangle x="130" y="570" width="80" height="30" as="alternateBounds" />
          </mxGeometry>
        </mxCell>
        <mxCell id="uEPk8Gao7o4AeKvKnNN_-18" value="- Nome : String" style="text;strokeColor=none;fillColor=none;align=left;verticalAlign=middle;spacingLeft=4;spacingRight=4;overflow=hidden;points=[[0,0.5],[1,0.5]];portConstraint=eastwest;rotatable=0;whiteSpace=wrap;html=1;" vertex="1" parent="uEPk8Gao7o4AeKvKnNN_-17">
          <mxGeometry y="30" width="140" height="30" as="geometry" />
        </mxCell>
        <mxCell id="uEPk8Gao7o4AeKvKnNN_-19" value="- Marca : String" style="text;strokeColor=none;fillColor=none;align=left;verticalAlign=middle;spacingLeft=4;spacingRight=4;overflow=hidden;points=[[0,0.5],[1,0.5]];portConstraint=eastwest;rotatable=0;whiteSpace=wrap;html=1;" vertex="1" parent="uEPk8Gao7o4AeKvKnNN_-17">
          <mxGeometry y="60" width="140" height="30" as="geometry" />
        </mxCell>
        <mxCell id="uEPk8Gao7o4AeKvKnNN_-20" value="- Quantidade : int" style="text;strokeColor=none;fillColor=none;align=left;verticalAlign=middle;spacingLeft=4;spacingRight=4;overflow=hidden;points=[[0,0.5],[1,0.5]];portConstraint=eastwest;rotatable=0;whiteSpace=wrap;html=1;" vertex="1" parent="uEPk8Gao7o4AeKvKnNN_-17">
          <mxGeometry y="90" width="140" height="30" as="geometry" />
        </mxCell>
        <mxCell id="uEPk8Gao7o4AeKvKnNN_-21" value="- Preço : double" style="text;strokeColor=none;fillColor=none;align=left;verticalAlign=middle;spacingLeft=4;spacingRight=4;overflow=hidden;points=[[0,0.5],[1,0.5]];portConstraint=eastwest;rotatable=0;whiteSpace=wrap;html=1;" vertex="1" parent="uEPk8Gao7o4AeKvKnNN_-17">
          <mxGeometry y="120" width="140" height="30" as="geometry" />
        </mxCell>
        <mxCell id="uEPk8Gao7o4AeKvKnNN_-24" value="Loja" style="swimlane;fontStyle=0;childLayout=stackLayout;horizontal=1;startSize=30;horizontalStack=0;resizeParent=1;resizeParentMax=0;resizeLast=0;collapsible=1;marginBottom=0;whiteSpace=wrap;html=1;strokeColor=default;" vertex="1" parent="1">
          <mxGeometry x="410" y="570" width="310" height="150" as="geometry">
            <mxRectangle x="130" y="570" width="80" height="30" as="alternateBounds" />
          </mxGeometry>
        </mxCell>
        <mxCell id="uEPk8Gao7o4AeKvKnNN_-25" value="- dinheiroCaixa : double" style="text;strokeColor=none;fillColor=none;align=left;verticalAlign=middle;spacingLeft=4;spacingRight=4;overflow=hidden;points=[[0,0.5],[1,0.5]];portConstraint=eastwest;rotatable=0;whiteSpace=wrap;html=1;" vertex="1" parent="uEPk8Gao7o4AeKvKnNN_-24">
          <mxGeometry y="30" width="310" height="30" as="geometry" />
        </mxCell>
        <mxCell id="uEPk8Gao7o4AeKvKnNN_-26" value="- produtos: List&amp;lt;Produto&amp;gt;" style="text;strokeColor=none;fillColor=none;align=left;verticalAlign=middle;spacingLeft=4;spacingRight=4;overflow=hidden;points=[[0,0.5],[1,0.5]];portConstraint=eastwest;rotatable=0;whiteSpace=wrap;html=1;" vertex="1" parent="uEPk8Gao7o4AeKvKnNN_-24">
          <mxGeometry y="60" width="310" height="30" as="geometry" />
        </mxCell>
        <mxCell id="uEPk8Gao7o4AeKvKnNN_-34" value="" style="group;strokeColor=default;" vertex="1" connectable="0" parent="uEPk8Gao7o4AeKvKnNN_-24">
          <mxGeometry y="90" width="310" height="60" as="geometry" />
        </mxCell>
        <mxCell id="uEPk8Gao7o4AeKvKnNN_-29" value="+ pegarProduto(nomeProduto) : Produto" style="text;strokeColor=none;fillColor=none;align=left;verticalAlign=middle;spacingLeft=4;spacingRight=4;overflow=hidden;points=[[0,0.5],[1,0.5]];portConstraint=eastwest;rotatable=0;whiteSpace=wrap;html=1;" vertex="1" parent="uEPk8Gao7o4AeKvKnNN_-34">
          <mxGeometry width="310" height="30" as="geometry" />
        </mxCell>
        <mxCell id="uEPk8Gao7o4AeKvKnNN_-30" value="+ venderProduto(nomeProduto, quantidade) : void" style="text;strokeColor=none;fillColor=none;align=left;verticalAlign=middle;spacingLeft=4;spacingRight=4;overflow=hidden;points=[[0,0.5],[1,0.5]];portConstraint=eastwest;rotatable=0;whiteSpace=wrap;html=1;" vertex="1" parent="uEPk8Gao7o4AeKvKnNN_-34">
          <mxGeometry y="30" width="310" height="30" as="geometry" />
        </mxCell>
        <mxCell id="uEPk8Gao7o4AeKvKnNN_-37" value="" style="endArrow=none;html=1;rounded=0;edgeStyle=orthogonalEdgeStyle;entryX=0;entryY=0.5;entryDx=0;entryDy=0;exitX=0.5;exitY=0;exitDx=0;exitDy=0;" edge="1" parent="1" source="uEPk8Gao7o4AeKvKnNN_-17" target="uEPk8Gao7o4AeKvKnNN_-26">
          <mxGeometry width="50" height="50" relative="1" as="geometry">
            <mxPoint x="220" y="580" as="sourcePoint" />
            <mxPoint x="270" y="530" as="targetPoint" />
          </mxGeometry>
        </mxCell>
      </root>
    </mxGraphModel>
  </diagram>
</mxfile>
